<?xml version="1.0" standalone="no"?>
<!DOCTYPE svg PUBLIC "-//W3C//DTD SVG 20010904//EN"
 "http://www.w3.org/TR/2001/REC-SVG-20010904/DTD/svg10.dtd">
<svg version="1.0" xmlns="http://www.w3.org/2000/svg"
 width="60.000000pt" height="55.000000pt" viewBox="0 0 60.000000 55.000000"
 preserveAspectRatio="xMidYMid meet">

<g transform="translate(0.000000,55.000000) scale(0.100000,-0.100000)"
fill="#000000" stroke="none">
<path d="M300 514 c-76 -33 -113 -91 -113 -175 0 -40 6 -67 21 -93 26 -43 27
-50 8 -43 -18 7 -143 -122 -144 -149 -1 -37 36 -20 103 46 36 36 64 70 62 76
-3 19 5 19 50 -5 65 -32 129 -29 189 12 60 40 84 84 84 158 0 136 -136 227
-260 173z m145 -13 c72 -33 105 -86 105 -167 0 -52 -16 -88 -57 -126 -110
-104 -294 -26 -295 126 -1 137 126 223 247 167z m-225 -321 c12 -8 4 -21 -47
-72 -54 -54 -64 -60 -78 -48 -14 12 -10 20 42 72 62 63 61 62 83 48z"/>
<path d="M296 477 c-54 -30 -80 -78 -80 -142 2 -84 59 -145 145 -153 92 -9
169 61 169 153 0 128 -125 204 -234 142z m144 -6 c123 -65 99 -252 -37 -277
-75 -14 -156 38 -173 110 -28 125 99 227 210 167z"/>
<path d="M449 434 c13 -9 29 -31 37 -48 7 -17 13 -23 14 -14 0 20 -47 78 -63
78 -6 0 -1 -7 12 -16z"/>
<path d="M295 384 c-24 -25 -4 -73 48 -114 31 -25 50 -18 91 31 28 33 33 68
14 87 -15 15 -50 16 -65 1 -8 -8 -13 -8 -17 0 -10 16 -52 13 -71 -5z m67 -11
c10 -9 18 -11 18 -6 0 15 29 25 51 18 31 -10 23 -49 -17 -88 -35 -34 -38 -35
-61 -20 -36 24 -53 64 -44 108 2 11 36 4 53 -12z"/>
<path d="M491 314 c0 -11 3 -14 6 -6 3 7 2 16 -1 19 -3 4 -6 -2 -5 -13z"/>
</g>
</svg>
